<svg id="Capa_1" enable-background="new 0 0 511.25 511.25" height="512" viewBox="0 0 511.25 511.25" width="512" xmlns="http://www.w3.org/2000/svg"><g><path d="m491.25 83.125c0 39.98-32.52 72.5-72.5 72.5-13.99 0-27.45-3.98-39.01-11.39-13.85 10.53-30.91 16.39-48.49 16.39-5.94 0-11.81-.65-17.5-1.92v-156.12c5.71-1.29 11.57-1.96 17.5-1.96 19.32 0 37.68 6.89 52.07 19.26 10.76-6.03 22.96-9.26 35.43-9.26 39.98 0 72.5 32.52 72.5 72.5z" fill="#b3d1d6"/><path d="m313.75 2.585v156.12c-5.99-1.33-11.79-3.35-17.32-6.04-16.86 17.71-40.36 27.96-65.18 27.96-15.95 0-31.65-4.3-45.35-12.28-14.04 11.09-31.54 17.28-49.65 17.28-10.65 0-21.01-2.06-30.77-6.14l-3.33-1.38-42.93-50.52-.83-3.51c-1.42-6.01-2.14-12.22-2.14-18.45 0-44.11 35.89-80 80-80 9.55 0 19.01 1.72 27.9 5.03 16.96-19 41.22-30.03 67.1-30.03 18.69 0 36.6 5.71 51.64 16.29 9.15-6.93 19.69-11.82 30.86-14.33z" fill="#e5eaee"/><path d="m511.25 210.625v300h-197.5v-257.87l35.05-42.13h41.04v97.12l80.34-97.12z" fill="#ffa07b"/><path d="m313.75 252.755v257.87h-197.5v-170.38l106.78-129.62h41.08v101.8z" fill="#ffc377"/><path d="m141.25 390.625h70v30h-70z" fill="#fff37d"/><path d="m241.25 390.625h60v30h-60z" fill="#fff37d"/><path d="m331.25 390.625h60v30h-60z" fill="#ffc377"/><path d="m421.25 390.625h60v30h-60z" fill="#ffc377"/><path d="m162.94 510.625h-85.67v-405h42.47z" fill="#ffa07b"/><path d="m77.27 105.625v405h-77.27l32.4-405z" fill="#ffc377"/><path d="m129.34 195.625h-52.07l-5.119-15 5.119-15h48.87z" fill="#e40058"/><path d="m77.27 165.625v30h-52.07l2.4-30z" fill="#ff4a4a"/></g></svg>